<svg xmlns="http://www.w3.org/2000/svg" xmlns:xlink="http://www.w3.org/1999/xlink" width="500" zoomAndPan="magnify" viewBox="0 0 375 187.499995" height="250" preserveAspectRatio="xMidYMid meet" version="1.0"><defs><g/><clipPath id="61424f790f"><path d="M 11.742188 74 L 100 74 L 100 137 L 11.742188 137 Z M 11.742188 74 " clip-rule="nonzero"/></clipPath></defs><path fill="#d98294" d="M 73.066406 49.328125 C 73.199219 49.066406 73.332031 48.816406 73.496094 48.570312 C 73.527344 48.535156 73.542969 48.488281 73.578125 48.453125 C 74.285156 47.449219 75.261719 46.757812 76.644531 46.3125 L 76.695312 46.292969 C 78.292969 45.800781 79.941406 45.996094 81.3125 46.707031 C 82.695312 47.433594 83.816406 48.667969 84.328125 50.285156 L 84.347656 50.335938 C 85.121094 52.808594 84.707031 55.546875 83.703125 58.414062 C 82.761719 61.085938 81.34375 63.855469 79.910156 66.625 C 79.449219 67.515625 78.375 67.863281 77.484375 67.402344 C 74.714844 65.96875 71.945312 64.53125 69.636719 62.898438 C 67.148438 61.117188 65.21875 59.105469 64.425781 56.617188 L 64.410156 56.566406 C 63.914062 54.96875 64.113281 53.320312 64.820312 51.949219 C 65.546875 50.566406 66.785156 49.445312 68.398438 48.933594 L 68.417969 48.933594 C 69.851562 48.472656 71.085938 48.503906 72.273438 48.964844 C 72.339844 48.980469 72.390625 49.015625 72.457031 49.046875 C 72.671875 49.128906 72.867188 49.230469 73.066406 49.328125 Z M 76.496094 50.582031 C 76.183594 51.042969 75.984375 51.734375 75.851562 52.625 C 75.804688 53.023438 75.640625 53.417969 75.324219 53.714844 C 74.617188 54.40625 73.480469 54.390625 72.785156 53.683594 C 72.160156 53.039062 71.617188 52.578125 71.121094 52.363281 L 71.023438 52.328125 C 70.625 52.179688 70.199219 52.164062 69.652344 52.328125 C 69.570312 52.363281 69.488281 52.394531 69.390625 52.414062 C 68.796875 52.644531 68.316406 53.070312 68.039062 53.617188 C 67.757812 54.160156 67.675781 54.785156 67.839844 55.414062 C 67.871094 55.496094 67.90625 55.59375 67.921875 55.675781 C 68.464844 57.242188 69.882812 58.644531 71.746094 59.964844 C 73.414062 61.152344 75.457031 62.273438 77.550781 63.378906 C 78.640625 61.25 79.644531 59.171875 80.320312 57.242188 C 81.0625 55.101562 81.410156 53.121094 80.964844 51.523438 C 80.933594 51.4375 80.898438 51.355469 80.882812 51.257812 C 80.652344 50.664062 80.222656 50.1875 79.679688 49.90625 C 79.136719 49.625 78.507812 49.542969 77.882812 49.707031 C 77.800781 49.742188 77.714844 49.773438 77.617188 49.789062 C 77.125 49.972656 76.792969 50.203125 76.5625 50.515625 Z M 76.695312 46.3125 C 76.859375 46.261719 77.023438 46.246094 77.1875 46.246094 Z M 64.425781 56.585938 C 64.375 56.417969 64.359375 56.253906 64.359375 56.089844 Z M 64.425781 56.585938 " fill-opacity="1" fill-rule="nonzero"/><path fill="#537791" d="M 93.101562 90.15625 C 94.617188 84.535156 94.816406 84.4375 95.261719 83.296875 C 94.683594 81.8125 93.746094 78.546875 92.605469 71.574219 C 90.726562 60.03125 92.097656 57.472656 92.097656 57.472656 C 92.507812 56.585938 93.578125 56.1875 94.488281 56.601562 C 94.585938 56.648438 94.667969 56.699219 94.75 56.75 L 111.472656 68.292969 C 113.320312 68.09375 118.675781 67.5 124.300781 66.921875 C 123.722656 56.980469 131.375 49.363281 132.148438 48.601562 C 132.296875 48.4375 132.480469 48.304688 132.695312 48.222656 C 133.601562 47.8125 134.671875 48.222656 135.070312 49.128906 L 142.902344 66.542969 C 144.980469 67.300781 147.023438 68.539062 149.003906 70.1875 C 152.859375 73.386719 156.503906 78.152344 159.769531 83.710938 C 161.023438 85.855469 162.820312 88.425781 164.734375 91.179688 C 171.757812 101.273438 180.414062 113.738281 175.304688 123.484375 C 173.96875 126.023438 171.527344 128.5625 168.410156 130.855469 C 165.972656 132.652344 163.070312 134.332031 159.96875 135.785156 C 159.933594 135.800781 159.902344 135.816406 159.851562 135.835938 C 156.539062 137.367188 152.976562 138.621094 149.429688 139.460938 C 142.355469 141.144531 135.28125 141.195312 130.1875 138.507812 C 129.050781 137.914062 128.011719 137.171875 127.085938 136.296875 C 125.472656 135.191406 122.15625 133.675781 118.5625 133.445312 C 116.21875 133.296875 113.796875 133.691406 111.769531 135.191406 C 109.015625 137.21875 105.484375 138.472656 102.601562 138.554688 C 101.148438 138.589844 99.828125 138.339844 98.757812 137.746094 C 97.519531 137.070312 96.648438 136.015625 96.285156 134.5 C 95.921875 132.980469 96.167969 131.035156 97.222656 128.613281 C 99.085938 124.359375 102.285156 121.621094 105.75 119.953125 C 109.015625 118.386719 112.558594 117.777344 115.429688 117.777344 C 113.300781 113.574219 111.734375 110.011719 110.863281 107.917969 C 109.558594 109.367188 108.75 110.65625 108.75 110.671875 C 108.222656 111.511719 107.117188 111.757812 106.277344 111.230469 C 105.4375 110.703125 105.1875 109.597656 105.714844 108.757812 C 105.734375 108.742188 110.480469 101.1875 116.5 100.414062 C 117.492188 100.28125 118.382812 100.992188 118.511719 101.964844 C 118.644531 102.953125 117.9375 103.84375 116.960938 103.976562 C 115.824219 104.125 114.738281 104.652344 113.714844 105.34375 C 114.472656 107.222656 116.75 112.617188 120.097656 118.933594 C 120.128906 119 120.179688 119.0625 120.195312 119.128906 C 121.265625 121.140625 122.46875 123.253906 123.757812 125.378906 L 123.773438 125.414062 L 123.789062 125.429688 C 125.242188 127.820312 126.824219 130.210938 128.503906 132.488281 C 129.394531 133.691406 130.535156 134.628906 131.851562 135.324219 C 136.109375 137.550781 142.308594 137.449219 148.605469 135.949219 C 151.609375 135.242188 154.625 134.203125 157.476562 132.964844 C 157.609375 131.382812 157.808594 128.117188 157.644531 124.589844 C 155.730469 124.390625 152.828125 123.765625 148.835938 122.050781 C 140.808594 118.570312 139.40625 113.640625 142.175781 112.335938 C 144.945312 111.015625 149.167969 108.726562 158.796875 107.273438 C 168.425781 105.824219 165.9375 111.59375 165.230469 114.828125 C 164.585938 117.761719 163.496094 122.941406 161.222656 124.257812 C 161.351562 126.847656 161.304688 129.320312 161.207031 131.152344 C 163.050781 130.160156 164.765625 129.074219 166.300781 127.953125 C 169.003906 125.957031 171.066406 123.847656 172.136719 121.816406 C 176.242188 114 168.261719 102.542969 161.78125 93.242188 C 159.871094 90.488281 158.070312 87.914062 156.671875 85.523438 C 153.601562 80.296875 150.222656 75.859375 146.710938 72.941406 C 144.863281 71.410156 142.984375 70.304688 141.121094 69.726562 L 141.085938 69.710938 C 139.984375 69.378906 138.878906 69.25 137.789062 69.3125 C 130.515625 69.777344 111.273438 71.9375 111.207031 71.9375 C 110.796875 71.984375 110.351562 71.886719 109.988281 71.621094 L 95.128906 61.367188 C 95.148438 63.113281 95.359375 66.050781 96.167969 70.980469 C 97.867188 81.449219 98.558594 82.109375 98.558594 82.109375 C 99.023438 82.636719 99.152344 83.429688 98.808594 84.089844 C 98.808594 84.089844 98.789062 82.867188 96.730469 90.503906 C 95.179688 94.015625 92.605469 92.019531 93.101562 90.15625 Z M 146.132812 80.675781 C 148.03125 80.675781 149.5625 83.28125 149.5625 86.496094 C 149.5625 89.710938 148.03125 92.316406 146.132812 92.316406 C 144.238281 92.316406 142.703125 89.710938 142.703125 86.496094 C 142.71875 83.28125 144.253906 80.675781 146.132812 80.675781 Z M 129.972656 84.007812 C 131.871094 84.007812 133.402344 86.613281 133.402344 89.828125 C 133.402344 93.042969 131.871094 95.648438 129.972656 95.648438 C 128.078125 95.648438 126.542969 93.042969 126.542969 89.828125 C 126.542969 86.613281 128.078125 84.007812 129.972656 84.007812 Z M 120.886719 127.558594 C 120.097656 127.027344 116.78125 125.332031 109.839844 128.347656 C 108.933594 128.742188 107.875 128.316406 107.480469 127.410156 C 107.085938 126.5 107.515625 125.445312 108.421875 125.050781 C 112.609375 123.234375 115.890625 122.90625 118.316406 123.136719 C 118 122.578125 117.703125 122.03125 117.40625 121.488281 C 114.917969 121.125 110.960938 121.457031 107.332031 123.1875 C 104.5625 124.523438 102.023438 126.683594 100.539062 130.046875 C 99.8125 131.695312 99.617188 132.882812 99.8125 133.675781 C 99.914062 134.085938 100.160156 134.382812 100.503906 134.582031 C 101 134.863281 101.710938 134.976562 102.535156 134.960938 C 104.726562 134.910156 107.464844 133.90625 109.65625 132.289062 C 112.476562 130.226562 115.726562 129.652344 118.824219 129.847656 C 120.195312 129.929688 121.53125 130.179688 122.785156 130.523438 C 122.125 129.535156 121.496094 128.546875 120.886719 127.558594 Z M 120.886719 127.558594 " fill-opacity="1" fill-rule="nonzero"/><g clip-path="url(#61424f790f)"><path fill="#537791" d="M 40.367188 119.3125 C 40.285156 118.324219 41.027344 117.449219 42.015625 117.382812 C 43.003906 117.300781 43.878906 118.042969 43.945312 119.03125 C 43.945312 119.046875 44.210938 122.726562 45.859375 122.644531 C 48.183594 122.527344 50.226562 117.960938 50.246094 117.960938 C 50.65625 117.050781 51.730469 116.65625 52.621094 117.070312 C 53.128906 117.300781 53.476562 117.746094 53.609375 118.238281 C 53.609375 118.257812 55.074219 123.730469 57.765625 123.203125 C 61.144531 122.527344 62.363281 119.34375 62.363281 119.328125 C 62.726562 118.40625 63.765625 117.941406 64.691406 118.304688 C 65.613281 118.667969 66.074219 119.707031 65.710938 120.632812 C 65.710938 120.648438 63.78125 125.644531 58.457031 126.714844 C 55.058594 127.390625 52.851562 124.917969 51.5625 122.625 C 50.261719 124.339844 48.363281 126.121094 46.023438 126.238281 C 40.84375 126.5 40.367188 119.328125 40.367188 119.3125 Z M 91.898438 129.15625 C 92.0625 130.128906 91.402344 131.070312 90.414062 131.234375 C 89.441406 131.398438 88.5 130.738281 88.335938 129.75 C 87.890625 127.128906 87.378906 124.125 86.835938 120.960938 C 84.199219 121.339844 82.398438 121.867188 82.382812 121.867188 C 81.425781 122.148438 80.4375 121.585938 80.15625 120.648438 C 79.878906 119.691406 80.4375 118.703125 81.378906 118.421875 C 81.394531 118.421875 83.339844 117.84375 86.210938 117.433594 C 85.914062 115.683594 85.597656 113.917969 85.285156 112.15625 C 82.382812 113.160156 80.703125 114.214844 80.703125 114.214844 C 79.859375 114.726562 78.738281 114.464844 78.226562 113.621094 C 77.714844 112.78125 77.980469 111.660156 78.820312 111.148438 C 78.839844 111.148438 80.980469 109.78125 84.640625 108.59375 C 84.476562 107.667969 84.3125 106.761719 84.148438 105.890625 C 83.949219 104.800781 83.753906 103.730469 83.554688 102.691406 C 81.855469 103.316406 80.289062 103.960938 78.988281 104.535156 C 78.558594 104.71875 78.277344 104.851562 78.128906 104.917969 L 78.046875 104.949219 C 77.734375 105.097656 77.4375 105.230469 77.207031 105.34375 C 76.316406 105.773438 75.226562 105.378906 74.816406 104.488281 C 74.386719 103.597656 74.78125 102.523438 75.671875 102.097656 C 75.96875 101.964844 76.265625 101.816406 76.546875 101.683594 C 76.578125 101.667969 76.613281 101.652344 76.644531 101.652344 C 77.089844 101.453125 77.402344 101.304688 77.550781 101.238281 C 79.070312 100.5625 80.898438 99.820312 82.894531 99.09375 C 82.332031 96.226562 81.824219 93.71875 81.410156 91.855469 C 79.8125 84.796875 77.882812 80.90625 76.695312 79.027344 L 66.46875 89.628906 C 66.007812 90.109375 65.332031 90.273438 64.738281 90.125 C 64.722656 90.125 57.53125 88.277344 53.195312 88.492188 C 48.910156 88.691406 45.164062 90.191406 45.164062 90.191406 C 44.40625 90.503906 43.550781 90.238281 43.070312 89.628906 C 42.578125 89.070312 38.734375 84.847656 34.398438 83.5625 C 31.460938 82.6875 28.214844 82.273438 26.054688 82.078125 L 29.847656 95.796875 C 29.960938 96.191406 29.929688 96.589844 29.78125 96.933594 C 29.617188 97.429688 28.808594 99.9375 27.71875 103.828125 C 32.007812 104.71875 34.316406 106.21875 34.316406 106.234375 C 35.15625 106.761719 35.421875 107.867188 34.890625 108.707031 C 34.363281 109.550781 33.261719 109.8125 32.417969 109.285156 C 32.402344 109.285156 30.488281 108.015625 26.78125 107.289062 C 26.664062 107.753906 26.53125 108.230469 26.417969 108.726562 C 25.921875 110.6875 25.527344 112.5 25.214844 114.085938 C 28.214844 113.707031 30.472656 113.539062 30.488281 113.539062 C 31.480469 113.472656 32.351562 114.214844 32.417969 115.207031 C 32.484375 116.195312 31.742188 117.070312 30.753906 117.136719 C 30.738281 117.136719 27.949219 117.347656 24.570312 117.792969 C 24.4375 118.703125 24.339844 119.425781 24.289062 119.921875 C 24.917969 120.546875 26.003906 121.605469 27.421875 122.875 C 30.324219 121.71875 32.140625 121.503906 32.15625 121.503906 C 33.144531 121.390625 34.035156 122.097656 34.152344 123.085938 C 34.265625 124.078125 33.558594 124.96875 32.566406 125.082031 C 32.566406 125.082031 31.824219 125.164062 30.554688 125.5625 C 33.855469 128.234375 37.941406 131.085938 41.851562 132.585938 C 42.773438 132.949219 43.253906 133.988281 42.890625 134.910156 C 42.542969 135.835938 41.488281 136.3125 40.566406 135.949219 C 35.632812 134.070312 30.507812 130.261719 26.761719 127.078125 C 24.75 128.050781 22.328125 129.503906 19.65625 131.644531 C 18.878906 132.273438 17.742188 132.140625 17.132812 131.367188 C 16.507812 130.589844 16.636719 129.453125 17.414062 128.84375 C 19.738281 126.980469 21.949219 125.578125 23.894531 124.523438 C 22.441406 123.171875 21.46875 122.199219 21.207031 121.917969 C 20.808594 121.554688 20.578125 121.011719 20.628906 120.433594 C 20.628906 120.433594 20.695312 119.691406 20.875 118.371094 C 18.453125 118.800781 16.09375 119.34375 14.460938 120.003906 C 13.539062 120.382812 12.5 119.9375 12.121094 119.03125 C 11.742188 118.109375 12.1875 117.070312 13.09375 116.691406 C 15.238281 115.800781 18.402344 115.125 21.46875 114.628906 C 21.816406 112.714844 22.292969 110.40625 22.953125 107.851562 L 23.21875 106.84375 C 21.007812 106.695312 18.402344 106.796875 15.417969 107.289062 C 14.445312 107.457031 13.503906 106.796875 13.339844 105.804688 C 13.175781 104.832031 13.835938 103.894531 14.824219 103.730469 C 18.386719 103.136719 21.519531 103.085938 24.15625 103.316406 C 25.128906 99.835938 25.921875 97.296875 26.25 96.257812 L 21.929688 80.609375 C 21.882812 80.445312 21.867188 80.261719 21.867188 80.082031 C 21.882812 79.09375 22.707031 78.300781 23.695312 78.335938 C 23.710938 78.335938 30.0625 78.53125 35.4375 80.113281 C 39.65625 81.367188 43.402344 84.796875 45.015625 86.449219 C 46.632812 85.917969 49.699219 85.078125 53.046875 84.914062 C 56.855469 84.730469 62.363281 85.886719 64.625 86.398438 L 75.523438 75.085938 C 75.554688 75.054688 75.589844 75.003906 75.621094 74.96875 C 76.332031 74.261719 77.46875 74.261719 78.179688 74.96875 C 78.195312 74.988281 82.203125 78.992188 84.9375 91.066406 C 85.351562 92.863281 85.828125 95.238281 86.359375 97.972656 L 86.671875 97.875 C 90.183594 96.867188 93.992188 96.160156 97.539062 96.273438 C 98.527344 96.308594 99.320312 97.132812 99.285156 98.121094 C 99.253906 99.113281 98.429688 99.902344 97.4375 99.871094 C 94.320312 99.789062 90.890625 100.429688 87.660156 101.355469 C 87.445312 101.421875 87.246094 101.46875 87.035156 101.535156 C 87.265625 102.722656 87.480469 103.960938 87.710938 105.230469 L 88.15625 107.636719 C 90.808594 107.058594 93.925781 106.679688 97.390625 106.828125 C 98.378906 106.863281 99.152344 107.703125 99.121094 108.691406 C 99.085938 109.679688 98.246094 110.457031 97.257812 110.421875 C 94.058594 110.292969 91.207031 110.636719 88.796875 111.183594 C 89.144531 113.160156 89.492188 115.125 89.835938 117.070312 C 91.585938 116.96875 93.480469 116.96875 95.378906 117.183594 C 96.367188 117.300781 97.074219 118.191406 96.976562 119.164062 C 96.863281 120.152344 95.972656 120.863281 95 120.746094 C 93.449219 120.566406 91.914062 120.546875 90.464844 120.613281 C 90.976562 123.714844 91.46875 126.617188 91.898438 129.15625 Z M 91.898438 129.15625 " fill-opacity="1" fill-rule="nonzero"/></g><path fill="#537791" d="M 44.390625 100.828125 C 46.121094 100.828125 47.539062 103.25 47.539062 106.234375 C 47.539062 109.21875 46.136719 111.644531 44.390625 111.644531 C 42.660156 111.644531 41.242188 109.21875 41.242188 106.234375 C 41.257812 103.234375 42.660156 100.828125 44.390625 100.828125 Z M 44.390625 100.828125 " fill-opacity="1" fill-rule="evenodd"/><path fill="#537791" d="M 62.859375 100.660156 C 64.589844 100.660156 66.007812 103.085938 66.007812 106.070312 C 66.007812 109.054688 64.605469 111.480469 62.859375 111.480469 C 61.128906 111.480469 59.710938 109.054688 59.710938 106.070312 C 59.710938 103.085938 61.128906 100.660156 62.859375 100.660156 Z M 62.859375 100.660156 " fill-opacity="1" fill-rule="evenodd"/><g fill="#537791" fill-opacity="1"><g transform="translate(194.782378, 95.458083)"><g><path d="M 16.3125 -25.0625 L 16.3125 -20.046875 L 7.53125 -20.046875 L 7.53125 -15.0625 L 15.640625 -15.0625 L 15.640625 -10.046875 L 7.53125 -10.046875 L 7.53125 0 L 1.828125 0 L 1.828125 -25.0625 Z M 16.3125 -25.0625 "/></g></g></g><g fill="#537791" fill-opacity="1"><g transform="translate(214.033598, 95.458083)"><g><path d="M 21.078125 -25.0625 L 21.078125 -8.90625 C 21.078125 -5.820312 20.242188 -3.488281 18.578125 -1.90625 C 16.921875 -0.332031 14.492188 0.453125 11.296875 0.453125 C 8.097656 0.453125 5.664062 -0.332031 4 -1.90625 C 2.34375 -3.488281 1.515625 -5.820312 1.515625 -8.90625 L 1.515625 -25.0625 L 7.234375 -25.0625 L 7.234375 -10.578125 C 7.234375 -8.546875 7.550781 -7.132812 8.1875 -6.34375 C 8.820312 -5.550781 9.859375 -5.15625 11.296875 -5.15625 C 12.734375 -5.15625 13.769531 -5.550781 14.40625 -6.34375 C 15.050781 -7.132812 15.375 -8.546875 15.375 -10.578125 L 15.375 -25.0625 Z M 21.078125 -25.0625 "/></g></g></g><g fill="#537791" fill-opacity="1"><g transform="translate(238.659029, 95.458083)"><g><path d="M 1.828125 -25.0625 L 10.78125 -25.0625 C 13.1875 -25.0625 15.148438 -24.414062 16.671875 -23.125 C 18.191406 -21.84375 18.953125 -20.007812 18.953125 -17.625 C 18.953125 -15.78125 18.488281 -14.234375 17.5625 -12.984375 C 16.644531 -11.742188 15.398438 -10.867188 13.828125 -10.359375 L 22.453125 0 L 15.1875 0 L 7.53125 -9.90625 L 7.53125 0 L 1.828125 0 Z M 7.53125 -13.9375 L 8.203125 -13.9375 C 8.722656 -13.9375 9.164062 -13.945312 9.53125 -13.96875 C 9.894531 -13.988281 10.3125 -14.0625 10.78125 -14.1875 C 11.25 -14.3125 11.625 -14.484375 11.90625 -14.703125 C 12.1875 -14.921875 12.425781 -15.242188 12.625 -15.671875 C 12.832031 -16.097656 12.9375 -16.613281 12.9375 -17.21875 C 12.9375 -17.832031 12.832031 -18.347656 12.625 -18.765625 C 12.425781 -19.191406 12.1875 -19.515625 11.90625 -19.734375 C 11.625 -19.960938 11.25 -20.132812 10.78125 -20.25 C 10.3125 -20.375 9.894531 -20.445312 9.53125 -20.46875 C 9.164062 -20.488281 8.722656 -20.5 8.203125 -20.5 L 7.53125 -20.5 Z M 7.53125 -13.9375 "/></g></g></g><g fill="#537791" fill-opacity="1"><g transform="translate(262.434299, 95.458083)"><g><path d="M 1.828125 -11.125 L 11.609375 -11.125 L 11.609375 -6.46875 L 1.828125 -6.46875 Z M 1.828125 -11.125 "/></g></g></g><g fill="#537791" fill-opacity="1"><g transform="translate(277.890167, 95.458083)"><g><path d="M 16.15625 -25.0625 L 16.15625 -20.046875 L 7.53125 -20.046875 L 7.53125 -15.0625 L 15.796875 -15.0625 L 15.796875 -10.046875 L 7.53125 -10.046875 L 7.53125 -5.015625 L 16.15625 -5.015625 L 16.15625 0 L 1.828125 0 L 1.828125 -25.0625 Z M 16.15625 -25.0625 "/></g></g></g><g fill="#537791" fill-opacity="1"><g transform="translate(297.536092, 95.458083)"><g><path d="M 9.65625 0 L -0.84375 -25.0625 L 5.59375 -25.0625 L 11.90625 -8.59375 L 18.21875 -25.0625 L 24.671875 -25.0625 L 14.15625 0 Z M 9.65625 0 "/></g></g></g><g fill="#537791" fill-opacity="1"><g transform="translate(323.376023, 95.458083)"><g><path d="M 16.15625 -25.0625 L 16.15625 -20.046875 L 7.53125 -20.046875 L 7.53125 -15.0625 L 15.796875 -15.0625 L 15.796875 -10.046875 L 7.53125 -10.046875 L 7.53125 -5.015625 L 16.15625 -5.015625 L 16.15625 0 L 1.828125 0 L 1.828125 -25.0625 Z M 16.15625 -25.0625 "/></g></g></g><g fill="#537791" fill-opacity="1"><g transform="translate(343.021948, 95.458083)"><g><path d="M 1.828125 -25.0625 L 10.78125 -25.0625 C 13.1875 -25.0625 15.148438 -24.414062 16.671875 -23.125 C 18.191406 -21.84375 18.953125 -20.007812 18.953125 -17.625 C 18.953125 -15.78125 18.488281 -14.234375 17.5625 -12.984375 C 16.644531 -11.742188 15.398438 -10.867188 13.828125 -10.359375 L 22.453125 0 L 15.1875 0 L 7.53125 -9.90625 L 7.53125 0 L 1.828125 0 Z M 7.53125 -13.9375 L 8.203125 -13.9375 C 8.722656 -13.9375 9.164062 -13.945312 9.53125 -13.96875 C 9.894531 -13.988281 10.3125 -14.0625 10.78125 -14.1875 C 11.25 -14.3125 11.625 -14.484375 11.90625 -14.703125 C 12.1875 -14.921875 12.425781 -15.242188 12.625 -15.671875 C 12.832031 -16.097656 12.9375 -16.613281 12.9375 -17.21875 C 12.9375 -17.832031 12.832031 -18.347656 12.625 -18.765625 C 12.425781 -19.191406 12.1875 -19.515625 11.90625 -19.734375 C 11.625 -19.960938 11.25 -20.132812 10.78125 -20.25 C 10.3125 -20.375 9.894531 -20.445312 9.53125 -20.46875 C 9.164062 -20.488281 8.722656 -20.5 8.203125 -20.5 L 7.53125 -20.5 Z M 7.53125 -13.9375 "/></g></g></g><g fill="#d98294" fill-opacity="1"><g transform="translate(194.782378, 127.227218)"><g><path d="M 2.039062 0 L 5.902344 0 L 5.902344 -5.851562 L 12.070312 -5.851562 L 12.070312 -9.253906 L 5.902344 -9.253906 L 5.902344 -13.503906 L 12.703125 -13.503906 L 12.703125 -17 L 2.039062 -17 Z M 2.039062 0 "/></g></g></g><g fill="#d98294" fill-opacity="1"><g transform="translate(208.552505, 127.227218)"><g><path d="M 1.847656 0 L 5.539062 0 L 5.539062 -5.632812 C 5.539062 -8.378906 6.824219 -9.398438 8.9375 -9.398438 L 10.347656 -9.398438 L 10.347656 -12.75 L 8.960938 -12.75 C 7.089844 -12.75 5.902344 -12.242188 5.074219 -11.050781 L 4.589844 -12.75 L 1.847656 -12.75 Z M 1.847656 0 "/></g></g></g><g fill="#d98294" fill-opacity="1"><g transform="translate(219.724039, 127.227218)"><g><path d="M 1.847656 0 L 5.539062 0 L 5.539062 -12.75 L 1.847656 -12.75 Z M 1.3125 -16.878906 C 1.3125 -15.519531 2.28125 -14.570312 3.691406 -14.570312 C 5.101562 -14.570312 6.070312 -15.519531 6.070312 -16.878906 C 6.070312 -18.238281 5.101562 -19.1875 3.691406 -19.1875 C 2.28125 -19.1875 1.3125 -18.238281 1.3125 -16.878906 Z M 1.3125 -16.878906 "/></g></g></g><g fill="#d98294" fill-opacity="1"><g transform="translate(227.106955, 127.227218)"><g><path d="M 7.867188 0.339844 C 11 0.339844 13.480469 -1.261719 14.597656 -3.957031 L 10.855469 -3.957031 C 10.25 -3.109375 9.15625 -2.621094 7.941406 -2.621094 C 6.265625 -2.621094 4.953125 -3.570312 4.613281 -5.320312 L 14.839844 -5.320312 C 15.058594 -9.980469 12.289062 -13.089844 7.917969 -13.089844 C 3.789062 -13.089844 0.945312 -10.347656 0.945312 -6.386719 C 0.945312 -2.40625 3.765625 0.339844 7.867188 0.339844 Z M 4.640625 -7.648438 C 5.050781 -9.203125 6.316406 -10.152344 7.941406 -10.152344 C 9.640625 -10.152344 10.855469 -9.203125 11.269531 -7.648438 Z M 4.640625 -7.648438 "/></g></g></g><g fill="#d98294" fill-opacity="1"><g transform="translate(242.868511, 127.227218)"><g><path d="M 1.847656 0 L 5.539062 0 L 5.539062 -6.679688 C 5.539062 -8.695312 6.65625 -9.933594 8.355469 -9.933594 C 9.933594 -9.933594 10.878906 -8.816406 10.878906 -6.945312 L 10.878906 0 L 14.570312 0 L 14.570312 -7.335938 C 14.570312 -10.855469 12.554688 -13.089844 9.230469 -13.089844 C 7.527344 -13.089844 6 -12.507812 4.980469 -11.316406 L 4.589844 -12.75 L 1.847656 -12.75 Z M 1.847656 0 "/></g></g></g><g fill="#d98294" fill-opacity="1"><g transform="translate(259.042931, 127.227218)"><g><path d="M 7.433594 0.339844 C 9.277344 0.339844 10.855469 -0.316406 11.996094 -1.457031 L 12.433594 0 L 15.179688 0 L 15.179688 -17.972656 L 11.488281 -17.972656 L 11.488281 -11.753906 C 10.394531 -12.605469 9.011719 -13.089844 7.433594 -13.089844 C 3.644531 -13.089844 0.945312 -10.296875 0.945312 -6.386719 C 0.945312 -2.429688 3.644531 0.339844 7.433594 0.339844 Z M 4.589844 -6.386719 C 4.589844 -8.453125 6.023438 -9.933594 8.113281 -9.933594 C 10.175781 -9.933594 11.609375 -8.453125 11.609375 -6.386719 C 11.609375 -4.296875 10.175781 -2.839844 8.113281 -2.839844 C 6.023438 -2.839844 4.589844 -4.296875 4.589844 -6.386719 Z M 4.589844 -6.386719 "/></g></g></g><g fill="#d98294" fill-opacity="1"><g transform="translate(276.067367, 127.227218)"><g/></g></g><g fill="#d98294" fill-opacity="1"><g transform="translate(281.774559, 127.227218)"><g><path d="M 2.039062 0 L 5.902344 0 L 5.902344 -5.851562 L 12.070312 -5.851562 L 12.070312 -9.253906 L 5.902344 -9.253906 L 5.902344 -13.503906 L 12.703125 -13.503906 L 12.703125 -17 L 2.039062 -17 Z M 2.039062 0 "/></g></g></g><g fill="#d98294" fill-opacity="1"><g transform="translate(295.544687, 127.227218)"><g><path d="M 1.847656 0 L 5.539062 0 L 5.539062 -12.75 L 1.847656 -12.75 Z M 1.3125 -16.878906 C 1.3125 -15.519531 2.28125 -14.570312 3.691406 -14.570312 C 5.101562 -14.570312 6.070312 -15.519531 6.070312 -16.878906 C 6.070312 -18.238281 5.101562 -19.1875 3.691406 -19.1875 C 2.28125 -19.1875 1.3125 -18.238281 1.3125 -16.878906 Z M 1.3125 -16.878906 "/></g></g></g><g fill="#d98294" fill-opacity="1"><g transform="translate(302.927602, 127.227218)"><g><path d="M 1.847656 0 L 5.539062 0 L 5.539062 -6.679688 C 5.539062 -8.695312 6.65625 -9.933594 8.355469 -9.933594 C 9.933594 -9.933594 10.878906 -8.816406 10.878906 -6.945312 L 10.878906 0 L 14.570312 0 L 14.570312 -7.335938 C 14.570312 -10.855469 12.554688 -13.089844 9.230469 -13.089844 C 7.527344 -13.089844 6 -12.507812 4.980469 -11.316406 L 4.589844 -12.75 L 1.847656 -12.75 Z M 1.847656 0 "/></g></g></g><g fill="#d98294" fill-opacity="1"><g transform="translate(319.102023, 127.227218)"><g><path d="M 7.433594 0.339844 C 9.277344 0.339844 10.855469 -0.316406 11.996094 -1.457031 L 12.433594 0 L 15.179688 0 L 15.179688 -17.972656 L 11.488281 -17.972656 L 11.488281 -11.753906 C 10.394531 -12.605469 9.011719 -13.089844 7.433594 -13.089844 C 3.644531 -13.089844 0.945312 -10.296875 0.945312 -6.386719 C 0.945312 -2.429688 3.644531 0.339844 7.433594 0.339844 Z M 4.589844 -6.386719 C 4.589844 -8.453125 6.023438 -9.933594 8.113281 -9.933594 C 10.175781 -9.933594 11.609375 -8.453125 11.609375 -6.386719 C 11.609375 -4.296875 10.175781 -2.839844 8.113281 -2.839844 C 6.023438 -2.839844 4.589844 -4.296875 4.589844 -6.386719 Z M 4.589844 -6.386719 "/></g></g></g><g fill="#d98294" fill-opacity="1"><g transform="translate(336.126458, 127.227218)"><g><path d="M 7.867188 0.339844 C 11 0.339844 13.480469 -1.261719 14.597656 -3.957031 L 10.855469 -3.957031 C 10.25 -3.109375 9.15625 -2.621094 7.941406 -2.621094 C 6.265625 -2.621094 4.953125 -3.570312 4.613281 -5.320312 L 14.839844 -5.320312 C 15.058594 -9.980469 12.289062 -13.089844 7.917969 -13.089844 C 3.789062 -13.089844 0.945312 -10.347656 0.945312 -6.386719 C 0.945312 -2.40625 3.765625 0.339844 7.867188 0.339844 Z M 4.640625 -7.648438 C 5.050781 -9.203125 6.316406 -10.152344 7.941406 -10.152344 C 9.640625 -10.152344 10.855469 -9.203125 11.269531 -7.648438 Z M 4.640625 -7.648438 "/></g></g></g><g fill="#d98294" fill-opacity="1"><g transform="translate(351.888014, 127.227218)"><g><path d="M 1.847656 0 L 5.539062 0 L 5.539062 -5.632812 C 5.539062 -8.378906 6.824219 -9.398438 8.9375 -9.398438 L 10.347656 -9.398438 L 10.347656 -12.75 L 8.960938 -12.75 C 7.089844 -12.75 5.902344 -12.242188 5.074219 -11.050781 L 4.589844 -12.75 L 1.847656 -12.75 Z M 1.847656 0 "/></g></g></g></svg>