<svg xmlns="http://www.w3.org/2000/svg" xmlns:xlink="http://www.w3.org/1999/xlink" width="670" zoomAndPan="magnify" viewBox="0 0 502.5 149.999998" height="200" preserveAspectRatio="xMidYMid meet" version="1.0"><defs><g/></defs><path fill="#d98294" d="M 92.359375 11.894531 C 92.550781 11.515625 92.738281 11.164062 92.972656 10.8125 C 93.019531 10.761719 93.042969 10.691406 93.089844 10.644531 C 94.105469 9.207031 95.496094 8.21875 97.472656 7.582031 L 97.542969 7.558594 C 99.828125 6.851562 102.183594 7.136719 104.140625 8.148438 C 106.121094 9.183594 107.722656 10.953125 108.453125 13.261719 L 108.476562 13.332031 C 109.582031 16.867188 108.992188 20.777344 107.554688 24.875 C 106.214844 28.691406 104.1875 32.648438 102.136719 36.605469 C 101.476562 37.878906 99.945312 38.375 98.675781 37.714844 C 94.71875 35.664062 90.757812 33.617188 87.460938 31.28125 C 83.902344 28.738281 81.148438 25.863281 80.015625 22.308594 L 79.992188 22.238281 C 79.285156 19.953125 79.570312 17.59375 80.582031 15.640625 C 81.617188 13.660156 83.386719 12.058594 85.695312 11.328125 L 85.71875 11.328125 C 87.765625 10.667969 89.535156 10.714844 91.230469 11.375 C 91.324219 11.398438 91.394531 11.445312 91.488281 11.492188 C 91.796875 11.613281 92.078125 11.753906 92.359375 11.894531 Z M 97.261719 13.683594 C 96.8125 14.34375 96.53125 15.332031 96.34375 16.605469 C 96.273438 17.171875 96.035156 17.738281 95.589844 18.160156 C 94.574219 19.152344 92.949219 19.125 91.960938 18.113281 C 91.066406 17.195312 90.289062 16.535156 89.582031 16.230469 L 89.441406 16.183594 C 88.875 15.96875 88.261719 15.945312 87.484375 16.183594 C 87.367188 16.230469 87.25 16.277344 87.109375 16.300781 C 86.257812 16.628906 85.578125 17.242188 85.175781 18.019531 C 84.773438 18.796875 84.65625 19.691406 84.894531 20.585938 C 84.941406 20.707031 84.988281 20.847656 85.011719 20.964844 C 85.789062 23.203125 87.8125 25.203125 90.476562 27.089844 C 92.855469 28.785156 95.777344 30.386719 98.769531 31.964844 C 100.324219 28.925781 101.761719 25.957031 102.726562 23.203125 C 103.785156 20.140625 104.28125 17.3125 103.644531 15.027344 C 103.597656 14.910156 103.550781 14.792969 103.527344 14.652344 C 103.199219 13.800781 102.585938 13.121094 101.808594 12.71875 C 101.03125 12.320312 100.136719 12.199219 99.238281 12.4375 C 99.121094 12.484375 99.003906 12.53125 98.863281 12.554688 C 98.15625 12.8125 97.683594 13.144531 97.355469 13.589844 Z M 97.542969 7.582031 C 97.78125 7.511719 98.015625 7.488281 98.25 7.488281 Z M 80.015625 22.261719 C 79.945312 22.023438 79.921875 21.789062 79.921875 21.554688 Z M 80.015625 22.261719 " fill-opacity="1" fill-rule="nonzero"/><path fill="#537791" d="M 120.984375 70.226562 C 123.152344 62.191406 123.433594 62.050781 124.070312 60.425781 C 123.246094 58.304688 121.902344 53.640625 120.277344 43.675781 C 117.59375 27.183594 119.546875 23.53125 119.546875 23.53125 C 120.136719 22.261719 121.667969 21.695312 122.964844 22.285156 C 123.105469 22.355469 123.222656 22.425781 123.339844 22.496094 L 147.230469 38.988281 C 149.867188 38.703125 157.523438 37.855469 165.558594 37.03125 C 164.734375 22.824219 175.664062 11.941406 176.769531 10.859375 C 176.984375 10.621094 177.242188 10.433594 177.546875 10.316406 C 178.84375 9.726562 180.375 10.316406 180.941406 11.613281 L 192.132812 36.488281 C 195.097656 37.574219 198.019531 39.339844 200.847656 41.695312 C 206.359375 46.265625 211.566406 53.074219 216.230469 61.015625 C 218.023438 64.078125 220.589844 67.75 223.324219 71.6875 C 233.359375 86.101562 245.726562 103.914062 238.421875 117.835938 C 236.515625 121.464844 233.027344 125.09375 228.574219 128.367188 C 225.089844 130.933594 220.941406 133.339844 216.515625 135.410156 C 216.46875 135.433594 216.417969 135.457031 216.347656 135.480469 C 211.613281 137.671875 206.523438 139.464844 201.460938 140.664062 C 191.355469 143.066406 181.246094 143.136719 173.96875 139.296875 C 172.34375 138.449219 170.859375 137.390625 169.539062 136.140625 C 167.230469 134.5625 162.496094 132.394531 157.359375 132.066406 C 154.011719 131.855469 150.550781 132.417969 147.652344 134.5625 C 143.71875 137.460938 138.675781 139.25 134.554688 139.367188 C 132.480469 139.417969 130.597656 139.0625 129.066406 138.214844 C 127.296875 137.25 126.050781 135.742188 125.53125 133.574219 C 125.011719 131.40625 125.367188 128.625 126.875 125.164062 C 129.535156 119.085938 134.105469 115.175781 139.054688 112.796875 C 143.71875 110.558594 148.785156 109.683594 152.882812 109.683594 C 149.84375 103.679688 147.605469 98.589844 146.355469 95.597656 C 144.496094 97.671875 143.339844 99.507812 143.339844 99.53125 C 142.585938 100.734375 141.007812 101.085938 139.808594 100.332031 C 138.605469 99.578125 138.253906 98 139.007812 96.800781 C 139.03125 96.773438 145.816406 85.984375 154.414062 84.878906 C 155.828125 84.691406 157.101562 85.703125 157.289062 87.09375 C 157.476562 88.507812 156.464844 89.777344 155.074219 89.96875 C 153.449219 90.179688 151.894531 90.933594 150.433594 91.921875 C 151.515625 94.609375 154.765625 102.3125 159.550781 111.335938 C 159.597656 111.429688 159.667969 111.523438 159.691406 111.617188 C 161.222656 114.492188 162.941406 117.507812 164.78125 120.546875 L 164.804688 120.59375 L 164.828125 120.617188 C 166.898438 124.03125 169.160156 127.449219 171.566406 130.699219 C 172.835938 132.417969 174.460938 133.761719 176.347656 134.75 C 182.425781 137.933594 191.28125 137.789062 200.28125 135.648438 C 204.570312 134.632812 208.882812 133.148438 212.957031 131.382812 C 213.144531 129.121094 213.429688 124.457031 213.191406 119.414062 C 210.460938 119.132812 206.3125 118.238281 200.613281 115.785156 C 189.140625 110.816406 187.136719 103.773438 191.09375 101.910156 C 195.050781 100.027344 201.082031 96.75 214.839844 94.679688 C 228.597656 92.605469 225.042969 100.851562 224.027344 105.46875 C 223.109375 109.660156 221.554688 117.058594 218.304688 118.945312 C 218.492188 122.640625 218.421875 126.175781 218.28125 128.792969 C 220.917969 127.378906 223.371094 125.824219 225.558594 124.222656 C 229.425781 121.371094 232.367188 118.355469 233.898438 115.457031 C 239.765625 104.289062 228.363281 87.917969 219.105469 74.628906 C 216.371094 70.695312 213.804688 67.019531 211.800781 63.605469 C 207.421875 56.136719 202.589844 49.800781 197.574219 45.628906 C 194.933594 43.4375 192.25 41.859375 189.585938 41.035156 L 189.539062 41.011719 C 187.960938 40.542969 186.382812 40.351562 184.828125 40.445312 C 174.4375 41.105469 146.945312 44.191406 146.851562 44.191406 C 146.261719 44.265625 145.625 44.121094 145.109375 43.746094 L 123.882812 29.09375 C 123.90625 31.589844 124.210938 35.78125 125.367188 42.828125 C 127.792969 57.785156 128.78125 58.730469 128.78125 58.730469 C 129.441406 59.480469 129.628906 60.613281 129.136719 61.554688 C 129.136719 61.554688 129.113281 59.8125 126.167969 70.71875 C 123.953125 75.738281 120.277344 72.886719 120.984375 70.226562 Z M 196.75 56.679688 C 199.457031 56.679688 201.648438 60.402344 201.648438 64.996094 C 201.648438 69.589844 199.457031 73.3125 196.75 73.3125 C 194.039062 73.3125 191.847656 69.589844 191.847656 64.996094 C 191.871094 60.402344 194.0625 56.679688 196.75 56.679688 Z M 173.660156 61.4375 C 176.371094 61.4375 178.5625 65.160156 178.5625 69.753906 C 178.5625 74.347656 176.371094 78.070312 173.660156 78.070312 C 170.953125 78.070312 168.761719 74.347656 168.761719 69.753906 C 168.761719 65.160156 170.953125 61.4375 173.660156 61.4375 Z M 160.679688 123.65625 C 159.550781 122.902344 154.816406 120.476562 144.894531 124.785156 C 143.601562 125.351562 142.09375 124.738281 141.527344 123.445312 C 140.960938 122.148438 141.574219 120.640625 142.871094 120.074219 C 148.855469 117.484375 153.542969 117.011719 157.003906 117.34375 C 156.558594 116.539062 156.132812 115.761719 155.710938 114.984375 C 152.152344 114.46875 146.5 114.9375 141.316406 117.414062 C 137.359375 119.320312 133.730469 122.40625 131.609375 127.210938 C 130.574219 129.570312 130.289062 131.265625 130.574219 132.394531 C 130.714844 132.984375 131.066406 133.410156 131.5625 133.691406 C 132.269531 134.09375 133.28125 134.257812 134.460938 134.234375 C 137.59375 134.164062 141.503906 132.726562 144.636719 130.417969 C 148.664062 127.472656 153.308594 126.648438 157.734375 126.929688 C 159.691406 127.046875 161.597656 127.402344 163.390625 127.894531 C 162.449219 126.484375 161.550781 125.070312 160.679688 123.65625 Z M 160.679688 123.65625 " fill-opacity="1" fill-rule="nonzero"/><path fill="#537791" d="M 45.644531 111.875 C 45.527344 110.460938 46.585938 109.214844 48 109.121094 C 49.414062 109.003906 50.664062 110.0625 50.757812 111.476562 C 50.757812 111.5 51.132812 116.753906 53.488281 116.636719 C 56.8125 116.46875 59.734375 109.945312 59.757812 109.945312 C 60.34375 108.648438 61.875 108.082031 63.148438 108.671875 C 63.878906 109.003906 64.375 109.636719 64.5625 110.34375 C 64.5625 110.367188 66.660156 118.191406 70.5 117.4375 C 75.328125 116.46875 77.070312 111.921875 77.070312 111.898438 C 77.589844 110.582031 79.074219 109.921875 80.394531 110.4375 C 81.710938 110.957031 82.371094 112.441406 81.855469 113.761719 C 81.855469 113.785156 79.097656 120.921875 71.488281 122.453125 C 66.636719 123.421875 63.480469 119.886719 61.640625 116.613281 C 59.78125 119.0625 57.070312 121.605469 53.726562 121.769531 C 46.328125 122.148438 45.644531 111.898438 45.644531 111.875 Z M 119.265625 125.941406 C 119.5 127.332031 118.558594 128.671875 117.144531 128.910156 C 115.753906 129.144531 114.410156 128.203125 114.175781 126.789062 C 113.539062 123.042969 112.808594 118.753906 112.03125 114.230469 C 108.261719 114.773438 105.695312 115.527344 105.671875 115.527344 C 104.304688 115.929688 102.890625 115.128906 102.492188 113.785156 C 102.089844 112.417969 102.890625 111.003906 104.234375 110.605469 C 104.257812 110.605469 107.039062 109.78125 111.136719 109.191406 C 110.714844 106.695312 110.265625 104.171875 109.816406 101.652344 C 105.671875 103.089844 103.269531 104.597656 103.269531 104.597656 C 102.066406 105.328125 100.464844 104.949219 99.734375 103.75 C 99.003906 102.546875 99.382812 100.945312 100.582031 100.214844 C 100.605469 100.214844 103.667969 98.257812 108.898438 96.5625 C 108.664062 95.242188 108.429688 93.949219 108.191406 92.699219 C 107.910156 91.144531 107.628906 89.613281 107.34375 88.128906 C 104.917969 89.023438 102.679688 89.945312 100.820312 90.769531 C 100.207031 91.027344 99.804688 91.214844 99.59375 91.308594 L 99.476562 91.355469 C 99.027344 91.570312 98.605469 91.757812 98.273438 91.921875 C 97.003906 92.535156 95.449219 91.96875 94.859375 90.699219 C 94.246094 89.425781 94.8125 87.894531 96.082031 87.28125 C 96.507812 87.09375 96.929688 86.882812 97.332031 86.691406 C 97.378906 86.667969 97.425781 86.644531 97.472656 86.644531 C 98.109375 86.363281 98.558594 86.152344 98.769531 86.054688 C 100.9375 85.089844 103.550781 84.03125 106.402344 82.992188 C 105.601562 78.894531 104.871094 75.3125 104.28125 72.652344 C 101.996094 62.570312 99.238281 57.007812 97.542969 54.324219 L 82.9375 69.472656 C 82.277344 70.15625 81.3125 70.390625 80.464844 70.179688 C 80.441406 70.179688 70.167969 67.539062 63.972656 67.84375 C 57.847656 68.128906 52.5 70.273438 52.5 70.273438 C 51.417969 70.71875 50.191406 70.34375 49.507812 69.472656 C 48.800781 68.671875 43.3125 62.640625 37.117188 60.800781 C 32.921875 59.554688 28.28125 58.964844 25.195312 58.679688 L 30.613281 78.28125 C 30.78125 78.847656 30.730469 79.414062 30.519531 79.90625 C 30.285156 80.613281 29.128906 84.195312 27.574219 89.753906 C 33.699219 91.027344 37 93.171875 37 93.195312 C 38.199219 93.949219 38.578125 95.527344 37.824219 96.726562 C 37.070312 97.929688 35.492188 98.308594 34.289062 97.554688 C 34.265625 97.554688 31.535156 95.738281 26.234375 94.703125 C 26.066406 95.363281 25.878906 96.046875 25.714844 96.75 C 25.007812 99.554688 24.441406 102.148438 23.996094 104.410156 C 28.28125 103.867188 31.507812 103.632812 31.535156 103.632812 C 32.945312 103.535156 34.195312 104.597656 34.289062 106.011719 C 34.382812 107.421875 33.324219 108.671875 31.910156 108.765625 C 31.886719 108.765625 27.90625 109.074219 23.074219 109.707031 C 22.886719 111.003906 22.746094 112.042969 22.675781 112.746094 C 23.570312 113.644531 25.125 115.152344 27.152344 116.964844 C 31.296875 115.316406 33.890625 115.007812 33.914062 115.007812 C 35.328125 114.84375 36.597656 115.859375 36.761719 117.269531 C 36.929688 118.683594 35.914062 119.957031 34.5 120.121094 C 34.5 120.121094 33.441406 120.238281 31.628906 120.804688 C 36.339844 124.621094 42.183594 128.695312 47.765625 130.839844 C 49.085938 131.359375 49.765625 132.84375 49.25 134.164062 C 48.753906 135.480469 47.246094 136.164062 45.925781 135.648438 C 38.882812 132.960938 31.558594 127.519531 26.210938 122.972656 C 23.335938 124.363281 19.871094 126.433594 16.054688 129.496094 C 14.949219 130.394531 13.324219 130.203125 12.449219 129.097656 C 11.554688 127.992188 11.746094 126.363281 12.851562 125.492188 C 16.171875 122.832031 19.328125 120.828125 22.109375 119.320312 C 20.035156 117.390625 18.648438 116 18.269531 115.597656 C 17.703125 115.082031 17.375 114.304688 17.445312 113.476562 C 17.445312 113.476562 17.539062 112.417969 17.796875 110.535156 C 14.335938 111.144531 10.96875 111.921875 8.632812 112.867188 C 7.316406 113.40625 5.832031 112.773438 5.289062 111.476562 C 4.746094 110.15625 5.382812 108.671875 6.679688 108.128906 C 9.742188 106.859375 14.265625 105.890625 18.648438 105.1875 C 19.140625 102.453125 19.824219 99.15625 20.765625 95.503906 L 21.144531 94.066406 C 17.988281 93.855469 14.265625 93.996094 10 94.703125 C 8.609375 94.9375 7.269531 93.996094 7.03125 92.582031 C 6.796875 91.191406 7.738281 89.847656 9.152344 89.613281 C 14.242188 88.765625 18.71875 88.695312 22.488281 89.023438 C 23.875 84.054688 25.007812 80.425781 25.480469 78.941406 L 19.304688 56.585938 C 19.234375 56.347656 19.210938 56.089844 19.210938 55.832031 C 19.234375 54.417969 20.414062 53.285156 21.828125 53.332031 C 21.851562 53.332031 30.921875 53.617188 38.601562 55.878906 C 44.632812 57.667969 49.980469 62.570312 52.289062 64.925781 C 54.597656 64.171875 58.980469 62.96875 63.761719 62.734375 C 69.203125 62.472656 77.070312 64.125 80.300781 64.855469 L 95.871094 48.691406 C 95.917969 48.644531 95.964844 48.574219 96.011719 48.527344 C 97.027344 47.515625 98.652344 47.515625 99.664062 48.527344 C 99.6875 48.550781 105.414062 54.277344 109.324219 71.519531 C 109.914062 74.089844 110.59375 77.480469 111.347656 81.390625 L 111.796875 81.25 C 116.816406 79.8125 122.257812 78.800781 127.320312 78.964844 C 128.734375 79.011719 129.867188 80.191406 129.820312 81.605469 C 129.773438 83.015625 128.59375 84.148438 127.179688 84.101562 C 122.726562 83.984375 117.828125 84.902344 113.210938 86.222656 C 112.902344 86.316406 112.621094 86.386719 112.316406 86.480469 C 112.644531 88.175781 112.953125 89.945312 113.28125 91.757812 L 113.917969 95.195312 C 117.710938 94.371094 122.164062 93.832031 127.109375 94.042969 C 128.523438 94.089844 129.628906 95.292969 129.582031 96.703125 C 129.535156 98.117188 128.335938 99.226562 126.921875 99.179688 C 122.351562 98.988281 118.273438 99.484375 114.835938 100.261719 C 115.332031 103.089844 115.824219 105.890625 116.320312 108.671875 C 118.816406 108.53125 121.527344 108.53125 124.234375 108.835938 C 125.648438 109.003906 126.664062 110.273438 126.519531 111.664062 C 126.355469 113.078125 125.082031 114.089844 123.695312 113.925781 C 121.480469 113.667969 119.289062 113.644531 117.214844 113.738281 C 117.945312 118.167969 118.652344 122.3125 119.265625 125.941406 Z M 119.265625 125.941406 " fill-opacity="1" fill-rule="nonzero"/><path fill="#537791" d="M 51.394531 85.46875 C 53.867188 85.46875 55.894531 88.929688 55.894531 93.195312 C 55.894531 97.457031 53.890625 100.921875 51.394531 100.921875 C 48.917969 100.921875 46.894531 97.457031 46.894531 93.195312 C 46.917969 88.90625 48.917969 85.46875 51.394531 85.46875 Z M 51.394531 85.46875 " fill-opacity="1" fill-rule="evenodd"/><path fill="#537791" d="M 77.777344 85.230469 C 80.253906 85.230469 82.277344 88.695312 82.277344 92.957031 C 82.277344 97.222656 80.277344 100.6875 77.777344 100.6875 C 75.304688 100.6875 73.277344 97.222656 73.277344 92.957031 C 73.277344 88.695312 75.304688 85.230469 77.777344 85.230469 Z M 77.777344 85.230469 " fill-opacity="1" fill-rule="evenodd"/><g fill="#537791" fill-opacity="1"><g transform="translate(255.614768, 80.6895)"><g><path d="M 23.140625 -35.546875 L 23.140625 -28.4375 L 10.6875 -28.4375 L 10.6875 -21.375 L 22.1875 -21.375 L 22.1875 -14.265625 L 10.6875 -14.265625 L 10.6875 0 L 2.578125 0 L 2.578125 -35.546875 Z M 23.140625 -35.546875 "/></g></g></g><g fill="#537791" fill-opacity="1"><g transform="translate(282.93091, 80.6895)"><g><path d="M 29.90625 -35.546875 L 29.90625 -12.625 C 29.90625 -8.257812 28.726562 -4.957031 26.375 -2.71875 C 24.019531 -0.476562 20.570312 0.640625 16.03125 0.640625 C 11.488281 0.640625 8.039062 -0.476562 5.6875 -2.71875 C 3.332031 -4.957031 2.15625 -8.257812 2.15625 -12.625 L 2.15625 -35.546875 L 10.25 -35.546875 L 10.25 -15 C 10.25 -12.125 10.703125 -10.125 11.609375 -9 C 12.515625 -7.882812 13.988281 -7.328125 16.03125 -7.328125 C 18.070312 -7.328125 19.546875 -7.882812 20.453125 -9 C 21.359375 -10.125 21.8125 -12.125 21.8125 -15 L 21.8125 -35.546875 Z M 29.90625 -35.546875 "/></g></g></g><g fill="#537791" fill-opacity="1"><g transform="translate(317.872686, 80.6895)"><g><path d="M 2.578125 -35.546875 L 15.296875 -35.546875 C 18.710938 -35.546875 21.5 -34.632812 23.65625 -32.8125 C 25.8125 -30.988281 26.890625 -28.382812 26.890625 -25 C 26.890625 -22.382812 26.234375 -20.191406 24.921875 -18.421875 C 23.617188 -16.648438 21.847656 -15.40625 19.609375 -14.6875 L 31.84375 0 L 21.546875 0 L 10.6875 -14.046875 L 10.6875 0 L 2.578125 0 Z M 10.6875 -19.78125 L 11.640625 -19.78125 C 12.378906 -19.78125 13.007812 -19.789062 13.53125 -19.8125 C 14.050781 -19.84375 14.640625 -19.945312 15.296875 -20.125 C 15.960938 -20.300781 16.492188 -20.546875 16.890625 -20.859375 C 17.296875 -21.171875 17.640625 -21.628906 17.921875 -22.234375 C 18.210938 -22.835938 18.359375 -23.570312 18.359375 -24.4375 C 18.359375 -25.300781 18.210938 -26.03125 17.921875 -26.625 C 17.640625 -27.226562 17.296875 -27.6875 16.890625 -28 C 16.492188 -28.320312 15.960938 -28.566406 15.296875 -28.734375 C 14.640625 -28.910156 14.050781 -29.015625 13.53125 -29.046875 C 13.007812 -29.078125 12.378906 -29.09375 11.640625 -29.09375 L 10.6875 -29.09375 Z M 10.6875 -19.78125 "/></g></g></g><g fill="#537791" fill-opacity="1"><g transform="translate(351.60814, 80.6895)"><g><path d="M 2.578125 -15.765625 L 16.46875 -15.765625 L 16.46875 -9.171875 L 2.578125 -9.171875 Z M 2.578125 -15.765625 "/></g></g></g><g fill="#537791" fill-opacity="1"><g transform="translate(373.538943, 80.6895)"><g><path d="M 22.921875 -35.546875 L 22.921875 -28.4375 L 10.6875 -28.4375 L 10.6875 -21.375 L 22.40625 -21.375 L 22.40625 -14.265625 L 10.6875 -14.265625 L 10.6875 -7.109375 L 22.921875 -7.109375 L 22.921875 0 L 2.578125 0 L 2.578125 -35.546875 Z M 22.921875 -35.546875 "/></g></g></g><g fill="#537791" fill-opacity="1"><g transform="translate(401.415144, 80.6895)"><g><path d="M 13.703125 0 L -1.203125 -35.546875 L 7.921875 -35.546875 L 16.890625 -12.203125 L 25.859375 -35.546875 L 34.984375 -35.546875 L 20.078125 0 Z M 13.703125 0 "/></g></g></g><g fill="#537791" fill-opacity="1"><g transform="translate(438.08021, 80.6895)"><g><path d="M 22.921875 -35.546875 L 22.921875 -28.4375 L 10.6875 -28.4375 L 10.6875 -21.375 L 22.40625 -21.375 L 22.40625 -14.265625 L 10.6875 -14.265625 L 10.6875 -7.109375 L 22.921875 -7.109375 L 22.921875 0 L 2.578125 0 L 2.578125 -35.546875 Z M 22.921875 -35.546875 "/></g></g></g><g fill="#537791" fill-opacity="1"><g transform="translate(465.956411, 80.6895)"><g><path d="M 2.578125 -35.546875 L 15.296875 -35.546875 C 18.710938 -35.546875 21.5 -34.632812 23.65625 -32.8125 C 25.8125 -30.988281 26.890625 -28.382812 26.890625 -25 C 26.890625 -22.382812 26.234375 -20.191406 24.921875 -18.421875 C 23.617188 -16.648438 21.847656 -15.40625 19.609375 -14.6875 L 31.84375 0 L 21.546875 0 L 10.6875 -14.046875 L 10.6875 0 L 2.578125 0 Z M 10.6875 -19.78125 L 11.640625 -19.78125 C 12.378906 -19.78125 13.007812 -19.789062 13.53125 -19.8125 C 14.050781 -19.84375 14.640625 -19.945312 15.296875 -20.125 C 15.960938 -20.300781 16.492188 -20.546875 16.890625 -20.859375 C 17.296875 -21.171875 17.640625 -21.628906 17.921875 -22.234375 C 18.210938 -22.835938 18.359375 -23.570312 18.359375 -24.4375 C 18.359375 -25.300781 18.210938 -26.03125 17.921875 -26.625 C 17.640625 -27.226562 17.296875 -27.6875 16.890625 -28 C 16.492188 -28.320312 15.960938 -28.566406 15.296875 -28.734375 C 14.640625 -28.910156 14.050781 -29.015625 13.53125 -29.046875 C 13.007812 -29.078125 12.378906 -29.09375 11.640625 -29.09375 L 10.6875 -29.09375 Z M 10.6875 -19.78125 "/></g></g></g><g fill="#d98294" fill-opacity="1"><g transform="translate(255.614768, 117.305042)"><g><path d="M 2.753906 0 L 7.960938 0 L 7.960938 -7.898438 L 16.285156 -7.898438 L 16.285156 -12.484375 L 7.960938 -12.484375 L 7.960938 -18.21875 L 17.136719 -18.21875 L 17.136719 -22.9375 L 2.753906 -22.9375 Z M 2.753906 0 "/></g></g></g><g fill="#d98294" fill-opacity="1"><g transform="translate(274.193756, 117.305042)"><g><path d="M 2.492188 0 L 7.472656 0 L 7.472656 -7.601562 C 7.472656 -11.304688 9.207031 -12.679688 12.058594 -12.679688 L 13.960938 -12.679688 L 13.960938 -17.203125 L 12.089844 -17.203125 C 9.566406 -17.203125 7.960938 -16.515625 6.847656 -14.910156 L 6.191406 -17.203125 L 2.492188 -17.203125 Z M 2.492188 0 "/></g></g></g><g fill="#d98294" fill-opacity="1"><g transform="translate(289.26666, 117.305042)"><g><path d="M 2.492188 0 L 7.472656 0 L 7.472656 -17.203125 L 2.492188 -17.203125 Z M 1.769531 -22.773438 C 1.769531 -20.9375 3.082031 -19.660156 4.980469 -19.660156 C 6.882812 -19.660156 8.191406 -20.9375 8.191406 -22.773438 C 8.191406 -24.609375 6.882812 -25.886719 4.980469 -25.886719 C 3.082031 -25.886719 1.769531 -24.609375 1.769531 -22.773438 Z M 1.769531 -22.773438 "/></g></g></g><g fill="#d98294" fill-opacity="1"><g transform="translate(299.227868, 117.305042)"><g><path d="M 10.617188 0.457031 C 14.84375 0.457031 18.1875 -1.703125 19.695312 -5.339844 L 14.648438 -5.339844 C 13.828125 -4.195312 12.355469 -3.539062 10.714844 -3.539062 C 8.453125 -3.539062 6.683594 -4.816406 6.226562 -7.175781 L 20.019531 -7.175781 C 20.316406 -13.46875 16.582031 -17.664062 10.683594 -17.664062 C 5.113281 -17.664062 1.277344 -13.960938 1.277344 -8.617188 C 1.277344 -3.242188 5.078125 0.457031 10.617188 0.457031 Z M 6.257812 -10.320312 C 6.816406 -12.417969 8.519531 -13.695312 10.714844 -13.695312 C 13.007812 -13.695312 14.648438 -12.417969 15.203125 -10.320312 Z M 6.257812 -10.320312 "/></g></g></g><g fill="#d98294" fill-opacity="1"><g transform="translate(320.493739, 117.305042)"><g><path d="M 2.492188 0 L 7.472656 0 L 7.472656 -9.011719 C 7.472656 -11.730469 8.980469 -13.402344 11.273438 -13.402344 C 13.402344 -13.402344 14.679688 -11.894531 14.679688 -9.371094 L 14.679688 0 L 19.660156 0 L 19.660156 -9.894531 C 19.660156 -14.648438 16.941406 -17.664062 12.453125 -17.664062 C 10.15625 -17.664062 8.09375 -16.875 6.71875 -15.269531 L 6.191406 -17.203125 L 2.492188 -17.203125 Z M 2.492188 0 "/></g></g></g><g fill="#d98294" fill-opacity="1"><g transform="translate(342.316658, 117.305042)"><g><path d="M 10.027344 0.457031 C 12.515625 0.457031 14.648438 -0.425781 16.1875 -1.964844 L 16.777344 0 L 20.480469 0 L 20.480469 -24.25 L 15.5 -24.25 L 15.5 -15.859375 C 14.023438 -17.007812 12.15625 -17.664062 10.027344 -17.664062 C 4.914062 -17.664062 1.277344 -13.894531 1.277344 -8.617188 C 1.277344 -3.277344 4.914062 0.457031 10.027344 0.457031 Z M 6.191406 -8.617188 C 6.191406 -11.402344 8.125 -13.402344 10.945312 -13.402344 C 13.730469 -13.402344 15.664062 -11.402344 15.664062 -8.617188 C 15.664062 -5.800781 13.730469 -3.832031 10.945312 -3.832031 C 8.125 -3.832031 6.191406 -5.800781 6.191406 -8.617188 Z M 6.191406 -8.617188 "/></g></g></g><g fill="#d98294" fill-opacity="1"><g transform="translate(365.286437, 117.305042)"><g/></g></g><g fill="#d98294" fill-opacity="1"><g transform="translate(372.986718, 117.305042)"><g><path d="M 2.753906 0 L 7.960938 0 L 7.960938 -7.898438 L 16.285156 -7.898438 L 16.285156 -12.484375 L 7.960938 -12.484375 L 7.960938 -18.21875 L 17.136719 -18.21875 L 17.136719 -22.9375 L 2.753906 -22.9375 Z M 2.753906 0 "/></g></g></g><g fill="#d98294" fill-opacity="1"><g transform="translate(391.565706, 117.305042)"><g><path d="M 2.492188 0 L 7.472656 0 L 7.472656 -17.203125 L 2.492188 -17.203125 Z M 1.769531 -22.773438 C 1.769531 -20.9375 3.082031 -19.660156 4.980469 -19.660156 C 6.882812 -19.660156 8.191406 -20.9375 8.191406 -22.773438 C 8.191406 -24.609375 6.882812 -25.886719 4.980469 -25.886719 C 3.082031 -25.886719 1.769531 -24.609375 1.769531 -22.773438 Z M 1.769531 -22.773438 "/></g></g></g><g fill="#d98294" fill-opacity="1"><g transform="translate(401.526914, 117.305042)"><g><path d="M 2.492188 0 L 7.472656 0 L 7.472656 -9.011719 C 7.472656 -11.730469 8.980469 -13.402344 11.273438 -13.402344 C 13.402344 -13.402344 14.679688 -11.894531 14.679688 -9.371094 L 14.679688 0 L 19.660156 0 L 19.660156 -9.894531 C 19.660156 -14.648438 16.941406 -17.664062 12.453125 -17.664062 C 10.15625 -17.664062 8.09375 -16.875 6.71875 -15.269531 L 6.191406 -17.203125 L 2.492188 -17.203125 Z M 2.492188 0 "/></g></g></g><g fill="#d98294" fill-opacity="1"><g transform="translate(423.349833, 117.305042)"><g><path d="M 10.027344 0.457031 C 12.515625 0.457031 14.648438 -0.425781 16.1875 -1.964844 L 16.777344 0 L 20.480469 0 L 20.480469 -24.25 L 15.5 -24.25 L 15.5 -15.859375 C 14.023438 -17.007812 12.15625 -17.664062 10.027344 -17.664062 C 4.914062 -17.664062 1.277344 -13.894531 1.277344 -8.617188 C 1.277344 -3.277344 4.914062 0.457031 10.027344 0.457031 Z M 6.191406 -8.617188 C 6.191406 -11.402344 8.125 -13.402344 10.945312 -13.402344 C 13.730469 -13.402344 15.664062 -11.402344 15.664062 -8.617188 C 15.664062 -5.800781 13.730469 -3.832031 10.945312 -3.832031 C 8.125 -3.832031 6.191406 -5.800781 6.191406 -8.617188 Z M 6.191406 -8.617188 "/></g></g></g><g fill="#d98294" fill-opacity="1"><g transform="translate(446.319612, 117.305042)"><g><path d="M 10.617188 0.457031 C 14.84375 0.457031 18.1875 -1.703125 19.695312 -5.339844 L 14.648438 -5.339844 C 13.828125 -4.195312 12.355469 -3.539062 10.714844 -3.539062 C 8.453125 -3.539062 6.683594 -4.816406 6.226562 -7.175781 L 20.019531 -7.175781 C 20.316406 -13.46875 16.582031 -17.664062 10.683594 -17.664062 C 5.113281 -17.664062 1.277344 -13.960938 1.277344 -8.617188 C 1.277344 -3.242188 5.078125 0.457031 10.617188 0.457031 Z M 6.257812 -10.320312 C 6.816406 -12.417969 8.519531 -13.695312 10.714844 -13.695312 C 13.007812 -13.695312 14.648438 -12.417969 15.203125 -10.320312 Z M 6.257812 -10.320312 "/></g></g></g><g fill="#d98294" fill-opacity="1"><g transform="translate(467.585483, 117.305042)"><g><path d="M 2.492188 0 L 7.472656 0 L 7.472656 -7.601562 C 7.472656 -11.304688 9.207031 -12.679688 12.058594 -12.679688 L 13.960938 -12.679688 L 13.960938 -17.203125 L 12.089844 -17.203125 C 9.566406 -17.203125 7.960938 -16.515625 6.847656 -14.910156 L 6.191406 -17.203125 L 2.492188 -17.203125 Z M 2.492188 0 "/></g></g></g></svg>